<svg id="Layer_1" data-name="Layer 1" xmlns="http://www.w3.org/2000/svg" viewBox="0 0 625.67 625.31"><defs><style>.cls-1{fill:#828282;}</style></defs><title>twitter</title><path class="cls-1" d="M814,501.15C812.31,675.4,674.41,813.87,500.65,813.64c-174.4-.23-312.38-139.54-312.32-312.75.06-173.95,139.25-312.79,313.08-312.56C674.77,188.57,812.48,326.92,814,501.15ZM276.22,643.38a32.94,32.94,0,0,0,2.53,2.12A256.28,256.28,0,0,0,362.17,679a275.35,275.35,0,0,0,93.4,3.27c35.52-4.74,68.7-16,99.27-34.46,32.36-19.59,58.65-45.65,79.69-77.11a274.89,274.89,0,0,0,29.9-58.54,272.11,272.11,0,0,0,16.77-99.93c0-1.9,1.34-4.26,2.78-5.68,11-10.85,22.28-21.38,33.16-32.32,3.39-3.4,5.8-7.77,8.65-11.69-16.12,5.11-31.82,10.17-48.46,11.52,17-12.75,30-28.15,37.15-49.88-3,1.57-4.78,2.41-6.46,3.33-14.39,7.93-29.69,13.33-45.56,17.46-5.05,1.32-8.19.13-11.85-3.18-22.25-20.12-48.32-28-78-23.2-41.83,6.74-74,41.81-76.91,84-.63,9.21-.09,18.51-.09,28.49q-113.83-7.89-189.89-97.18c-22.34,49.17-12.88,89.76,27.51,123.84-14.48-.37-27.25-4.83-40.77-11.4,3.09,47.85,27.14,77.84,72.66,92.57-13.82,3.5-26.27,3.22-39.32,1.49a91.21,91.21,0,0,0,32.69,45.88c15.23,11.5,32.8,17.33,51.93,19.06C370.93,635.48,326.58,647.61,276.22,643.38Z" transform="translate(-188.33 -188.33)"/></svg>