<svg id="Layer_1" data-name="Layer 1" xmlns="http://www.w3.org/2000/svg" viewBox="0 0 773.38 744"><defs><style>.cls-1{fill:none;stroke:#7a7a7a;stroke-miterlimit:10;stroke-width:20px;}.cls-2{fill:#7a7a7a;}</style></defs><title>github</title><path class="cls-1" d="M388.5,150.5s50-6,110,29c0,0,49-51,105-40,0,0,29,47-7,100,0,0,122,287-143,349,0,0,52,11,53,133,0,0,0,14-118,18" transform="translate(-6.31 -9)"/><path class="cls-1" d="M392.54,150.5s-50-6-110,29c0,0-49-51-105-40,0,0-29,47,7,100,0,0-122,287,143,349,0,0-52,11-53,133,0,0,0,14,118,18" transform="translate(-6.31 -9)"/><ellipse class="cls-1" cx="386.69" cy="372" rx="376.69" ry="362"/><path class="cls-2" d="M298,88.88a1.5,1.5,0,0,0,0-3,1.5,1.5,0,0,0,0,3Z" transform="translate(-6.31 -9)"/><path class="cls-2" d="M323.5,87.24a85.47,85.47,0,0,0,29.74,6.48c1.93.08,1.93-2.92,0-3a83.08,83.08,0,0,1-28.94-6.38c-1.78-.74-2.56,2.17-.8,2.9Z" transform="translate(-6.31 -9)"/><path class="cls-2" d="M357.42,73.15l-85.1,1.29v40c71.33-5.4,142.48-4,213.75,1.5l7.88.61,2.69.21,1.45.13c1.54.16,1,.06-1.67-.27.44.43,6.11,1.15,3.16.49-2.22-.51-.56-.38.16.19a5.73,5.73,0,0,1-2.44-2.36c-.76-1.15-.85-1.27-.28-.35,1.05,2-.55-1.52-.56-1.56.91,2.36.12.31,0-1.09.18,2.87-.78-.08.44-1-.3.22-.36,2.89-.75,2.89s1.87-3.27.48-1.21a21.17,21.17,0,0,0-1.58,2.68c-1.18,2.48,2.2-2.29.3-.29-.9,1-1.74,2-2.64,2.9-7.23,7.58-8.09,20.86,0,28.29,7.83,7.18,20.57,8.08,28.28,0s13.52-17.4,15-28.72a34.8,34.8,0,0,0-12.94-32.37c-9.11-7-20.06-7.86-31.14-8.72-9.85-.76-19.7-1.52-29.55-2.2-40.21-2.81-80.49-4-120.79-3.15q-34.69.74-69.32,3.39c-10.41.78-20.51,8.63-20,20,.48,10.7,8.79,20.16,20,20l85.1-1.29c10.46-.16,20.49-9.09,20-20-.48-10.7-8.79-20.17-20-20Z" transform="translate(-6.31 -9)"/><path class="cls-2" d="M495.66,115.56A50.62,50.62,0,0,0,472.33,156c-.61,10.47,9.64,20.47,20,20,11.36-.5,19.35-8.79,20-20,.17-2.24.08-1.86-.25,1.17a27.41,27.41,0,0,1,.65-2.71c.71-2.07.53-1.79-.55.86a26.42,26.42,0,0,1,1.28-2.48,27.42,27.42,0,0,1,1.51-2.34c-1.74,2.18-1.89,2.45-.47.82.65-.67,1.32-1.31,2-1.91-2.25,1.66-2.47,1.88-.68.66,8.74-5.73,13.24-18,7.18-27.37-5.63-8.72-18-13.3-27.37-7.17Z" transform="translate(-6.31 -9)"/><path class="cls-2" d="M501.93,138.63c-57.95-25.92-123.47-24-185.45-18.28-19.61,1.81-37.41,6.06-52.82,18.93-8.06,6.74-7.48,21.43,0,28.29,8.57,7.87,19.68,7.18,28.28,0-3.8,3.18,1.32-.83,2.25-1.37s6.58-4.1,2.15-1.32c3.23-2,8.35-2.68,12-3.41,1-.19,7.93-1.58,2.55-.52a47.63,47.63,0,0,1,4.77-.52c4.33-.42,8.68-.69,13-1,18-1.19,36.09-2.27,54.17-2.42,9.16-.07,18.33.09,27.47.61,4.11.24,8.21.54,12.3.93,2.33.23,4.65.51,7,.75s2.32.29-.11,0l3.47.51a227.27,227.27,0,0,1,25.57,5.38q6.74,1.83,13.32,4.14c2.2.78,4.36,1.64,6.55,2.45s2.17.87.09,0c1.08.46,2.15.93,3.22,1.42,9.53,4.26,21.95,3.07,27.37-7.18,4.6-8.72,3-22.8-7.18-27.36Z" transform="translate(-6.31 -9)"/><path class="cls-2" d="M277.89,173.52c10.46,0,20.48-9.2,20-20s-8.79-20-20-20c-10.46,0-20.48,9.2-20,20s8.79,20,20,20Z" transform="translate(-6.31 -9)"/><path class="cls-2" d="M246.13,115.62l-1,0,10.1,2.73,2.53,1.8L262.9,129q-9.06,19.44-2.38,13.19l-1.42,1.07c1.32-1,2.7-2,4.09-2.88a84.75,84.75,0,0,1,9.4-5.37c.75-.38,1.5-.73,2.26-1.08-2,.8-2.29.93-.94.39,1.57-.58,3.11-1.19,4.7-1.71a85.88,85.88,0,0,1,10-2.63c.63-.13,6-1,3.81-.72-1.43.18-1.08.15,1.05-.11,1.24-.13,2.49-.25,3.73-.36,3.74-.32,7.49-.52,11.24-.7,7.9-.39,15.8-.71,23.7-1q48.64-1.82,97.34-1.63c10.46,0,20.48-9.23,20-20s-8.79-20-20-20Q369.83,85.19,310.27,88c-20.52,1-40.06,3.5-58.62,12.84a83.67,83.67,0,0,0-10,5.94c-5.25,3.61-11.1,7.46-14.48,13-9.43,15.53.43,35.31,19,35.87,10.47.32,20.47-9.42,20-20-.5-11.11-8.79-19.66-20-20Z" transform="translate(-6.31 -9)"/><path class="cls-2" d="M455,127.89a67.3,67.3,0,0,0,24.69,3.74c10.44-.36,20.49-8.94,20-20-.48-10.53-8.8-20.39-20-20-1.41.05-2.82.07-4.23,0-.94,0-1.88-.1-2.81-.19,2.75.41,3.35.5,1.82.24a71,71,0,0,1-8.83-2.38c-9.86-3.54-22.33,4-24.6,14-2.56,11.23,3.4,20.82,14,24.6Z" transform="translate(-6.31 -9)"/><path class="cls-2" d="M488.87,135.84c10.46,0,20.48-9.19,20-20s-8.79-20-20-20c-10.46,0-20.49,9.2-20,20s8.78,20,20,20Z" transform="translate(-6.31 -9)"/><path class="cls-2" d="M484.42,97.62c-4.91.72,4.61-.42-.33,0-1.42.13-2.84.28-4.26.38-2.85.21-5.69.3-8.54.33-10.46.1-20.49,9.12-20,20s8.79,20.11,20,20a175.57,175.57,0,0,0,23.77-2.16c4.6-.67,9.71-5.36,11.95-9.19,2.51-4.28,3.57-10.6,2-15.41s-4.56-9.51-9.19-12c-5.07-2.68-9.78-2.84-15.41-2Z" transform="translate(-6.31 -9)"/><path class="cls-2" d="M443.66,138.36c10.46,0,20.48-9.2,20-20s-8.79-20-20-20c-10.46,0-20.49,9.2-20,20s8.79,20,20,20Z" transform="translate(-6.31 -9)"/><path class="cls-2" d="M449.05,58.41a764.2,764.2,0,0,0-231.54.83c-10.37,1.63-17,15.13-14,24.6,3.65,11.27,13.49,15.71,24.6,14q6.74-1.05,13.47-2,3.62-.5.47-.06l3.86-.49c1.93-.24,3.86-.48,5.79-.7q13.53-1.59,27.1-2.65,27.15-2.14,54.41-2.25t54.43,1.84q13.59,1,27.12,2.44,6.29.69,12.56,1.49l2.89.37q-3.15-.43.47.07,3.85.54,7.7,1.11c10.31,1.53,22-2.57,24.6-14,2.17-9.5-2.9-23-14-24.6Z" transform="translate(-6.31 -9)"/><path class="cls-2" d="M233.31,93.24c4.28-2.3,8.63-4.49,13.05-6.51,1-.47,2.09-.91,3.12-1.39,3-1.42-4.38,1.7.72-.31,2.38-.93,4.75-1.88,7.15-2.76a255.19,255.19,0,0,1,28.54-8.57c9.74-2.34,19.57-4,29.46-5.57,3.07-.48-3.29.4-.2,0l3.43-.43q3.85-.47,7.73-.85c5.17-.52,10.36-.94,15.55-1.29,20.25-1.35,40.57-1.49,60.87-1.22,19.59.27,39.29.49,58.78,2.67,1.13.13,2.25.28,3.37.4,1.5.19,1.12.13-1.12-.16l2.51.37c2.49.39,5,.81,7.47,1.29,5.47,1,10.9,2.33,16.24,3.92,2.65.78,5.28,1.65,7.88,2.59,1,.37,2.07.78,3.1,1.17,5.12,1.93-3.62-1.79,1.33.56a133.47,133.47,0,0,1,14.62,8L527,47.9q-87.3-.51-174.6-.19c-10.46,0-20.49,9.17-20,20s8.78,20.05,20,20q87.3-.31,174.6.19c8.44,0,17.36-6.22,19.29-14.69a20.76,20.76,0,0,0-9.19-22.58c-37.25-23.79-82.91-25.32-125.72-26.12-43.27-.8-87-.05-129.47,9.1A261.28,261.28,0,0,0,213.12,58.7c-9.22,5-12.88,18.51-7.17,27.37,6,9.36,17.5,12.49,27.36,7.17Z" transform="translate(-6.31 -9)"/><path class="cls-2" d="M274.23,56.24,250,59.63c-10.4,1.45-17,15.25-14,24.6,3.69,11.41,13.45,15.52,24.6,14l24.27-3.39c10.4-1.45,17-15.25,14-24.6-3.69-11.41-13.45-15.52-24.6-14Z" transform="translate(-6.31 -9)"/><path class="cls-2" d="M231.84,106.54c10.47,0,20.49-9.2,20-20s-8.78-20-20-20c-10.46,0-20.48,9.2-20,20s8.79,20,20,20Z" transform="translate(-6.31 -9)"/><path class="cls-2" d="M211.84,78.26l-2.51,2.51a15,15,0,0,0-4.14,6.44,15.1,15.1,0,0,0-1.72,7.7,15.12,15.12,0,0,0,1.72,7.71,15.09,15.09,0,0,0,4.14,6.44l4,3.12a19.87,19.87,0,0,0,10.09,2.73l5.32-.71a19.9,19.9,0,0,0,8.82-5.14l2.52-2.52a15,15,0,0,0,4.13-6.43A15,15,0,0,0,246,92.4a15,15,0,0,0-1.72-7.7,15,15,0,0,0-4.13-6.44l-4-3.13A19.91,19.91,0,0,0,226,72.4l-5.31.72a20,20,0,0,0-8.83,5.14Z" transform="translate(-6.31 -9)"/><path class="cls-2" d="M201.63,91.26l-.86,2.5a15.15,15.15,0,0,0-.35,8,14.86,14.86,0,0,0,2.37,7.43,15.11,15.11,0,0,0,5.15,5.61,15,15,0,0,0,6.8,3.58l5.32.72a19.87,19.87,0,0,0,10.09-2.73l4-3.13a20,20,0,0,0,5.14-8.82l.86-2.51a15.26,15.26,0,0,0,.36-8,15,15,0,0,0-2.38-7.43A15,15,0,0,0,233,80.87a15.05,15.05,0,0,0-6.8-3.58l-5.32-.72a19.87,19.87,0,0,0-10.09,2.73l-4,3.13a20,20,0,0,0-5.14,8.83Z" transform="translate(-6.31 -9)"/><path class="cls-2" d="M276.22,130c10.46,0,20.48-9.19,20-20s-8.79-20-20-20c-10.47,0-20.49,9.2-20,20s8.78,20,20,20Z" transform="translate(-6.31 -9)"/><path class="cls-2" d="M238.51,88.06A303.83,303.83,0,0,1,190,89.46c-10.47-.54-20.47,9.58-20,20,.5,11.29,8.79,19.42,20,20a303.83,303.83,0,0,0,48.54-1.4c10.37-1.13,20.52-8.39,20-20-.44-9.86-8.86-21.21-20-20Z" transform="translate(-6.31 -9)"/><path class="cls-2" d="M191.27,71.07A72.9,72.9,0,0,0,155.76,92.5c-7,7.78-8.25,20.71,0,28.29,7.63,7,20.82,8.31,28.28,0,1.6-1.78,3.44-3.31,5.06-5,1.85-2-2.59,1.65-.31.17,1.11-.72,2.17-1.5,3.3-2.2,1.3-.79,4.07-3,5.61-3l-1.85.79c.74-.29,1.49-.55,2.25-.79,1.26-.42,2.52-.77,3.81-1.11C212,107,219.17,95.23,215.88,85c-3.37-10.41-13.76-16.81-24.61-14Z" transform="translate(-6.31 -9)"/><path class="cls-2" d="M184.92,128.64c-4.08-.53,1.42.21,2.26.33,1.89.28,3.78.58,5.66.88q5.67.92,11.3,2c7.51,1.43,15,3.09,22.4,4.92,10.14,2.49,22.16-3.24,24.6-14,2.35-10.33-3.1-21.93-14-24.6a477,477,0,0,0-52.25-9.55c-10.42-1.36-20.44,10.18-20,20,.54,12,8.84,18.54,20,20Z" transform="translate(-6.31 -9)"/><path class="cls-2" d="M246.07,99.13a28.92,28.92,0,0,1-6.51,0l5.31.71a30.48,30.48,0,0,1-3.55-.69,20.92,20.92,0,0,0-15.42,2c-4.14,2.43-8.1,7.19-9.19,12-1.16,5.12-.91,10.86,2,15.41,2.79,4.33,6.84,7.89,12,9.19a42.77,42.77,0,0,0,15.39,1.37,22.28,22.28,0,0,0,14.14-5.85c3.47-3.47,6.08-9.16,5.86-14.15-.23-5.17-1.93-10.53-5.86-14.14-3.64-3.34-9-6.46-14.14-5.86Z" transform="translate(-6.31 -9)"/><path class="cls-2" d="M155.35,102.34a41.78,41.78,0,0,0-19.59,11.19,20.66,20.66,0,0,0-5.86,14.14c0,4.9,2.18,10.76,5.86,14.14s8.82,6.1,14.14,5.86a20.8,20.8,0,0,0,14.15-5.86,26,26,0,0,1,2-1.87l-4,3.12a24.71,24.71,0,0,1,4.75-2.87l-4.78,2a25.13,25.13,0,0,1,4-1.3,20.43,20.43,0,0,0,12-9.19c2.51-4.29,3.58-10.6,2-15.41-3.43-10.61-13.69-16.57-24.6-14Z" transform="translate(-6.31 -9)"/><path class="cls-2" d="M163.19,145.05c10.46,0,20.49-9.2,20-20s-8.78-20-20-20c-10.46,0-20.48,9.2-20,20s8.79,20,20,20Z" transform="translate(-6.31 -9)"/><path class="cls-2" d="M164.87,144.22c10.46,0,20.48-9.2,20-20s-8.79-20-20-20c-10.46,0-20.49,9.2-20,20s8.79,20,20,20Z" transform="translate(-6.31 -9)"/><path class="cls-2" d="M144.77,161c10.47,0,20.49-9.2,20-20s-8.78-20-20-20c-10.46,0-20.48,9.2-20,20s8.79,20,20,20Z" transform="translate(-6.31 -9)"/><path class="cls-2" d="M121.32,137.05a147.71,147.71,0,0,0-2.41,27.35c0,10.46,9.22,20.49,20,20s20-8.78,20-20c0-3.42,0-6.85.23-10.27.09-1.54.27-3.07.37-4.61s.1-1-.2,1.41c.17-1.09.36-2.17.58-3.24,1.93-10.25-2.85-22.07-14-24.6-9.85-2.25-22.53,3-24.6,14Z" transform="translate(-6.31 -9)"/><path class="cls-2" d="M117.24,178.64v1.67A15.16,15.16,0,0,0,119,188a18.06,18.06,0,0,0,10.57,10.57,15.16,15.16,0,0,0,7.71,1.72l5.32-.71a20.07,20.07,0,0,0,8.82-5.15l3.13-4a19.87,19.87,0,0,0,2.73-10.09v-1.67a15.12,15.12,0,0,0-1.72-7.71A18,18,0,0,0,145,160.36a15.06,15.06,0,0,0-7.71-1.72l-5.32.71a19.9,19.9,0,0,0-8.82,5.14l-3.13,4a19.88,19.88,0,0,0-2.73,10.1Z" transform="translate(-6.31 -9)"/><path class="cls-2" d="M135.53,147.65q-.24,3.27.36-1.76c-.13.78-.29,1.56-.48,2.33s-1.19,2.6-1.06,3.41c1.22-2.74,1.49-3.43.82-2-.26.54-.54,1.06-.84,1.57-.4.69-.83,1.36-1.28,2,2-2.44,2.27-2.85.92-1.25-3.51,4.09-5.86,8.61-5.86,14.14,0,4.91,2.18,10.77,5.86,14.15,7.48,6.87,21,8.47,28.28,0a52.89,52.89,0,0,0,13.28-32.56c.59-10.46-9.63-20.46-20-20-11.35.51-19.37,8.79-20,20Z" transform="translate(-6.31 -9)"/><path class="cls-2" d="M121.86,192c-4.56,11.94,1.23,25.83,10.12,34.13,2.89,2.7,6.11,5,9,7.74q-2.1-3.09-.32-.29c-.89-2.43-1-2.58-.33-.43-.25-2.76-.33-3-.25-.68.49-2.72.47-3-.08-.72-2.73,10.09,3.41,22.2,14,24.6s21.67-3.16,24.6-14a38.17,38.17,0,0,0-8.79-36.2c-2.69-3-6-5.14-9-7.8a27.22,27.22,0,0,1-2.18-2.12q2.33,3.21.56.43a7.8,7.8,0,0,1,1.11,4.67q-1,4.52.1,1.27c3.75-9.79-4.13-22.36-14-24.6-11.42-2.6-20.6,3.49-24.61,14Z" transform="translate(-6.31 -9)"/><path class="cls-2" d="M168.87,226.21c-.85-.53-1.67-1.09-2.5-1.64-2.7-1.78.23.51.47.42-.54.21-3.94-3.54-4.42-4s-4.13-3.68-4-4.46c-.08.4,2.12,3.1.43.46-.67-1.05-1.38-2.07-2-3.14-1-1.71-1.84-3.54-2.84-5.26-1.36-2.37,1.13,3.24.24.66-.33-.94-.7-1.87-1-2.81-.62-1.9-1.16-3.82-1.59-5.76-.21-1-.36-2-.57-2.94-.59-2.76.51,5,.09.13-.89-10.4-8.56-20.52-20-20-10.07.45-21,8.83-20,20,2.23,26,15.41,48.8,37.53,62.9,8.83,5.64,22.45,2.12,27.36-7.17a20.44,20.44,0,0,0-7.17-27.37Z" transform="translate(-6.31 -9)"/><path class="cls-2" d="M111.94,139.06c-23.74,23-41.24,50.09-55.72,79.61-4.6,9.37-2.85,22.06,7.17,27.36,9,4.76,22.45,2.85,27.37-7.18,6.86-14,14-27.74,22.85-40.58,2.14-3.09,4.34-6.14,6.64-9.11-2.13,2.75.4-.46,1.18-1.4q1.63-2,3.33-4,7.33-8.58,15.46-16.41c7.53-7.3,7.88-21.06,0-28.29-8.08-7.42-20.25-7.78-28.28,0Z" transform="translate(-6.31 -9)"/><path class="cls-2" d="M83.86,205.19a256,256,0,0,0-5.94,38.75c-.82,10.46,9.79,20.46,20,20,11.54-.52,19.12-8.8,20-20,.2-2.5.42-5,.69-7.5.14-1.24.28-2.49.45-3.73-.39,2.95,0,.27.23-1.21.85-5.26,1.92-10.49,3.15-15.68,2.4-10.16-3.18-22.14-14-24.6-10.25-2.33-22,3.08-24.61,14Z" transform="translate(-6.31 -9)"/><path class="cls-2" d="M85.18,236.4q-.62,29.29.45,58.6c.38,10.44,8.93,20.5,20,20,10.51-.47,20.41-8.8,20-20q-1.06-29.29-.45-58.6c.22-10.47-9.35-20.48-20-20-11,.49-19.76,8.78-20,20Z" transform="translate(-6.31 -9)"/><path class="cls-2" d="M105.52,248.12v65.31c0,10.46,9.2,20.48,20,20s20-8.79,20-20V248.12c0-10.46-9.2-20.48-20-20s-20,8.79-20,20Z" transform="translate(-6.31 -9)"/><path class="cls-2" d="M139.4,254.43A405.44,405.44,0,0,0,108.28,335c-2.69,10.1,3.37,22.19,14,24.6s21.72-3.15,24.6-14A381.76,381.76,0,0,1,159,307.81q1.65-4.32,3.4-8.6c.52-1.27,1.64-3.82.49-1.19.74-1.69,1.48-3.39,2.23-5.08,2.77-6.18,5.73-12.28,8.82-18.32,4.77-9.3,2.74-22.13-7.17-27.36-9.15-4.83-22.27-2.77-27.37,7.17Z" transform="translate(-6.31 -9)"/><path class="cls-2" d="M77.3,243.52a354.17,354.17,0,0,0-8.88,51.54c-1,10.45,10,20.45,20,20,11.74-.52,18.87-8.81,20-20q.28-2.81.6-5.6c0-.34.89-6.42.25-2.14.56-3.72,1.13-7.43,1.79-11.13,1.33-7.41,3-14.74,4.82-22,2.57-10.13-3.3-22.17-14-24.6-10.4-2.37-21.85,3.12-24.61,14Z" transform="translate(-6.31 -9)"/><path class="cls-2" d="M75.81,233.35c-9.21,1.88-18.77,5.08-25.55,11.93-8,8.07-10.31,18.61-12.95,29.21C32.26,294.71,28,315.15,26.65,336c-.67,10.46,9.67,20.46,20,20,11.4-.51,19.29-8.8,20-20,.26-4.2.68-8.35,1.15-12.53.18-1.45.16-1.28-.06.53.18-1.28.38-2.55.59-3.82.31-1.92.64-3.82,1-5.73,1.47-7.94,3.26-15.83,5.17-23.68q1.49-6.12,3.05-12.23c.4-1.6.95-3.21,1.26-4.83l.44-1.46q-1.72,3.58-.2.62c-1.62,1.83-2,2.23-1,1.19s.57-.73-1.44.92A21.6,21.6,0,0,1,79,273.59l-2.21.89c1.6-1.7,7.54-2.13,9.65-2.56,10.27-2.1,17.14-14.8,14-24.6-3.52-10.88-13.6-16.22-24.6-14Z" transform="translate(-6.31 -9)"/><path class="cls-2" d="M66.86,343.74A91.92,91.92,0,0,1,72.47,334c.9-1.34,1.84-2.65,2.79-3.95-2.8,3.81.81-.83,1.47-1.56a86.24,86.24,0,0,1,7.42-7.39c1.25-1.1,3.69-3,.95-.94,1.71-1.3,3.49-2.51,5.29-3.69,8.74-5.72,13.23-18,7.17-27.36-5.63-8.73-18-13.3-27.36-7.18-16,10.44-29.32,24.54-37.87,41.66-4.67,9.35-2.81,22.1,7.17,27.37,9.06,4.78,22.37,2.81,27.36-7.18Z" transform="translate(-6.31 -9)"/><path class="cls-2" d="M64.16,304.28a296.76,296.76,0,0,0-2.36,46.83c.3,10.44,9,20.49,20,20,10.58-.48,20.32-8.8,20-20a296.76,296.76,0,0,1,2.36-46.83c1.35-10.41-10.17-20.44-20-20-12,.54-18.55,8.84-20,20Z" transform="translate(-6.31 -9)"/><path class="cls-2" d="M109.59,353a300.16,300.16,0,0,0,24.7-39.63c4.82-9.28,2.69-22.15-7.18-27.37-9.19-4.85-22.21-2.73-27.36,7.18a300.16,300.16,0,0,1-24.7,39.63c-6.22,8.45-1.68,22.68,7.18,27.36,10.43,5.52,20.71,1.85,27.36-7.17Z" transform="translate(-6.31 -9)"/><path class="cls-2" d="M98.82,309.21c0,2.33-.13,4.64-.27,7-.23,3.91.41-1.65-.06.74-.22,1.15-.38,2.31-.59,3.46-.91,4.9-2.08,9.74-3.14,14.61-2.33,10.73-4.36,21.88-3.3,32.88,1,10.38,8.49,20.52,20,20,10-.45,21.07-8.85,20-20a63.86,63.86,0,0,1-.32-6.92c0-1.44.1-2.88.22-4.31,0-.44.45-4.12.13-1.64s.22-1.21.3-1.64c.2-1.15.42-2.3.64-3.44.52-2.58,1.09-5.16,1.67-7.73,2.41-10.82,4.74-21.83,4.72-33,0-10.46-9.18-20.48-20-20s-20,8.79-20,20Z" transform="translate(-6.31 -9)"/><path class="cls-2" d="M152.76,357a66.37,66.37,0,0,0,8.81-19.79c2.68-10.1-3.37-22.19-14-24.61s-21.74,3.15-24.61,14a54.74,54.74,0,0,1-2.31,6.86l2-4.77a52.86,52.86,0,0,1-4.47,8.15c-5.84,8.71-2,22.53,7.17,27.37,10.08,5.32,21.13,2.12,27.36-7.18Z" transform="translate(-6.31 -9)"/><path class="cls-2" d="M123.3,329.15c-11.78,35.55-13.52,73.52-6.42,110.2,2,10.29,14.88,17.11,24.6,14,11-3.55,16.11-13.58,14-24.61-.4-2.1-.79-4.2-1.14-6.31-.14-.88-.93-7.29-.45-2.86-.39-3.65-.76-7.3-1-11a192.83,192.83,0,0,1,0-24.75c.25-4,.64-7.92,1.12-11.87-.55,4.45.27-1.53.34-1.95q.52-3.17,1.15-6.31a199.2,199.2,0,0,1,6.36-23.92c3.29-9.94-3.81-22.29-14-24.6-11-2.51-21.08,3.33-24.6,14Z" transform="translate(-6.31 -9)"/><path class="cls-2" d="M153.54,424.8q-14.26-25.59-30.46-50c-5.77-8.71-17.93-13.26-27.36-7.18-8.69,5.6-13.36,18-7.18,27.36q16.2,24.42,30.47,50c5.1,9.14,18.41,12.94,27.36,7.17,9.25-6,12.63-17.58,7.17-27.36Z" transform="translate(-6.31 -9)"/><path class="cls-2" d="M74.93,360a450,450,0,0,0-6.78,56.46c-.58,10.46,9.61,20.46,20,20,11.32-.51,19.38-8.79,20-20,.45-8.26,1.12-16.51,2.08-24.73.22-1.89.45-3.79.7-5.68-.54,4.08.23-1.41.36-2.24.66-4.41,1.41-8.8,2.21-13.18,1.88-10.26-2.8-22.06-14-24.6-9.8-2.24-22.58,3-24.6,14Z" transform="translate(-6.31 -9)"/><path class="cls-2" d="M106.06,409.5a146.91,146.91,0,0,0-11.28-34.3c-2.17-4.53-4.82-8.8-7.16-13.24-.51-1-.94-2-1.48-2.94-1.15-2,.86,3.11-.16-.45-.3-1-.6-2.05-.89-3.07-1.34-4.71.08,3.91,0-1-.2-10.45-9.06-20.49-20-20-10.67.48-20.21,8.79-20,20,.25,13.63,6.49,24.75,12.82,36.38,1.24,2.28,2.37,4.6,3.45,7-1.61-3.53,0,.21.3,1,.52,1.39,1,2.78,1.46,4.19a161.32,161.32,0,0,1,4.38,17.18c2.1,10.27,14.8,17.14,24.6,14,10.88-3.52,16.22-13.6,14-24.6Z" transform="translate(-6.31 -9)"/><path class="cls-2" d="M53.36,331C42.47,338.17,37.45,351,34,363.13A106.18,106.18,0,0,0,30.2,396.3c.46,10.44,8.87,20.5,20,20,10.44-.46,20.49-8.8,20-20a90.68,90.68,0,0,1,.16-11.42c.06-.88.15-1.76.25-2.63q-.52,3.6,0,.09c.36-1.72.66-3.46,1.07-5.17.82-3.44,2-6.75,3.07-10.09,1.46-4.37-1.21,2,.72-1.71.45-1,.93-1.93,1.43-2.87q2.79-4.31-3.38,3c8.72-5.75,13.25-17.95,7.18-27.37-5.62-8.7-18-13.33-27.37-7.17Z" transform="translate(-6.31 -9)"/><path class="cls-2" d="M64.13,385.23c-.77-2.63-1.21-5.32-1.93-7.94-.62-2.22.07,2.83-.16-1-.09-1.52-.22-3-.26-4.54-.07-2.73.06-5.44.25-8.17.13-1.91.38-2,0-.08.38-1.79.7-3.56,1.12-5.34C65.51,348,60,336,49.15,333.58c-10.25-2.34-22,3.08-24.6,14a94,94,0,0,0,1,48.31c2.94,10,14.2,17.33,24.6,14,10.17-3.29,17.12-13.85,14-24.6Z" transform="translate(-6.31 -9)"/><path class="cls-2" d="M23,352.81c1.1,16.87,2.75,33.67,1.54,50.57-1.26,17.44-1.07,35.82,8.94,51,5.75,8.72,17.94,13.25,27.36,7.17,8.7-5.6,13.34-18,7.17-27.36-.89-1.35-1.65-2.74-2.45-4.15,2.21,3.89.06,0-.31-1.2-.46-1.56-.75-3.14-1.13-4.72-1.06-4.47,0,3.1-.1-1.14-.11-7.88.28-15.61.79-23.49,1-15.52-.8-31.16-1.81-46.65-.67-10.42-8.71-20.51-20-20-10.25.46-20.72,8.82-20,20Z" transform="translate(-6.31 -9)"/><path class="cls-2" d="M78.66,425.07A73.59,73.59,0,0,0,83,409.19c.86-5.5.9-10.43-2-15.42-2.43-4.14-7.18-8.1-12-9.19-5.12-1.16-10.87-.91-15.41,2-4.1,2.64-8.4,6.92-9.19,11.95a73.43,73.43,0,0,1-4.36,15.88c-1.8,4.51-.33,11.41,2,15.41,2.43,4.15,7.19,8.11,12,9.19,5.12,1.17,10.86.92,15.41-2s7.15-6.85,9.19-11.95Z" transform="translate(-6.31 -9)"/><path class="cls-2" d="M48.31,409.19c4.75,24.38,19.27,44.66,38.77,59.48,8.36,6.36,22.73,1.59,27.36-7.17,5.58-10.55,1.75-20.58-7.17-27.36,3.4,2.58-.81-.8-1.91-1.81-1.71-1.57-3.35-3.23-4.9-4.95-.69-.76-1.33-1.6-2-2.34-1.93-2,1.85,2.69.26.4-1.32-1.92-2.67-3.79-3.88-5.79-1.08-1.76-2.08-3.57-3-5.41-.23-.44-1.49-2.35-1.34-2.79-.22.67,1.25,3.32.21.5a86.81,86.81,0,0,1-3.78-13.39c-2-10.29-14.87-17.12-24.6-14-11,3.54-16.12,13.58-14,24.6Z" transform="translate(-6.31 -9)"/><path class="cls-2" d="M125.55,451.57l.93-25.11c.39-10.47-9.47-20.47-20-20-11.16.5-19.58,8.78-20,20l-.93,25.11c-.38,10.47,9.48,20.47,20,20,11.17-.5,19.59-8.79,20-20Z" transform="translate(-6.31 -9)"/><path class="cls-2" d="M91.86,435.66q17.7,42.12,35.71,84.1c4.14,9.65,19.06,12.53,27.36,7.17,10-6.46,11.61-17,7.18-27.36q-8.31-19.35-16.54-38.73-4-9.46-8-18.93c-.63-1.51-1.27-3-1.9-4.51-.55-1.29-.51-1.21.11.26l-.76-1.8L130.43,425c-2.12-5-4.28-9.08-9.19-12-4.29-2.5-10.61-3.57-15.42-2-9.22,3-18.31,14.27-14,24.6Z" transform="translate(-6.31 -9)"/><path class="cls-2" d="M117.33,448.21A216.69,216.69,0,0,0,127.85,498c3.42,9.86,13.85,17.45,24.6,14,9.76-3.16,17.64-14,14-24.6a195.93,195.93,0,0,1-6-21q-1.16-5.08-2-10.25c-.14-.85-.92-6.32-.39-2.21-.24-1.88-.44-3.77-.63-5.66-1-10.38-8.45-20.52-20-20-9.94.44-21.11,8.85-20,20Z" transform="translate(-6.31 -9)"/><path class="cls-2" d="M132.11,496c.46.57,3.58,4.54,1.51,1.85q1.71,2.24,3.39,4.5c2.23,3,4.41,6.07,6.54,9.15,4.27,6.18,8.3,12.52,12.15,19,5.36,9,18.22,13.07,27.36,7.18s12.92-17.76,7.18-27.37a382.9,382.9,0,0,0-29.85-42.56c-6.56-8.21-21.53-7.35-28.28,0-8,8.72-7,19.53,0,28.29Z" transform="translate(-6.31 -9)"/><path class="cls-2" d="M173.25,501.44l-37.69,1.18c-10.44.33-20.49,9-20,20,.47,10.56,8.8,20.36,20,20l37.69-1.18c10.45-.33,20.5-9,20-20-.47-10.56-8.8-20.36-20-20Z" transform="translate(-6.31 -9)"/><path class="cls-2" d="M129.55,497.75c-.73-.87-1.46-1.75-2.16-2.64,1.2,1.57,1.39,1.79.54.65-.94-1.43-2-2.79-2.93-4.21a107.93,107.93,0,0,1-5.64-9.56c-.8-1.52-1.52-3.07-2.28-4.6-2.07-4.19.81,2.51-.67-1.5-1.39-3.76-2.68-7.5-3.75-11.36-2.81-10.07-14.31-17.3-24.6-14s-17,13.81-14,24.6c5.27,19,14.63,35.8,27.18,50.88,6.72,8.07,21.43,7.46,28.28,0,7.88-8.59,7.17-19.67,0-28.29Z" transform="translate(-6.31 -9)"/><path class="cls-2" d="M55.61,442.81c-5.32,12.41-7,24.1-4.32,37.44,2,10.28,14.84,17.13,24.6,14,10.92-3.53,16.16-13.58,14-24.6-1-4.78-.09,4.25-.07-.63,0-.19.06-4.52.09-4.51l-.34,2.34q.25-1.49.63-2.94c.29-1.14,1.94-5.45,0-.88,2.2-5.15,3.57-9.77,2-15.41C90.89,443,87.3,437.92,83,435.64c-8.59-4.55-23-3.1-27.36,7.17Z" transform="translate(-6.31 -9)"/><path class="cls-2" d="M30,464.52c2.09,7.28,4,14.63,6.31,21.86,2.4,7.59,6.23,14.2,10.3,21l23.85,39.71c5.38,9,18.21,13.08,27.36,7.18s12.94-17.77,7.17-27.37L82.17,488.81c-1.72-2.87-3.48-5.72-5.16-8.62-.46-.78-1.86-2.43-1.85-3.39q1.41,3.61.24.44l-.49-1.5c-2.28-7.22-4.22-14.57-6.31-21.85-2.89-10.05-14.24-17.32-24.6-14s-17.07,13.83-14,24.6Z" transform="translate(-6.31 -9)"/><path class="cls-2" d="M67,539.75c.19,1,.35,2,.5,3.07l-.72-5.32A52.55,52.55,0,0,1,67,547.84c-.38,4.87,2.5,10.79,5.86,14.14S82,568.06,87,567.84c5.17-.23,10.54-1.93,14.14-5.86A22.22,22.22,0,0,0,107,547.84a71.93,71.93,0,0,0-1.42-18.73c-.87-4.68-5.21-9.62-9.19-12-4.29-2.51-10.61-3.57-15.41-2s-9.51,4.56-12,9.19c-2.64,5-3,9.86-2,15.41Z" transform="translate(-6.31 -9)"/><path class="cls-2" d="M103.13,534.1,101,526.68a20.71,20.71,0,0,0-9.19-11.95,14.86,14.86,0,0,0-7.44-2.37,15,15,0,0,0-8,.36c-4.84,1.56-9.51,4.56-12,9.19a20.76,20.76,0,0,0-2,15.41l2.09,7.42a20.68,20.68,0,0,0,9.19,12,14.86,14.86,0,0,0,7.43,2.37,15.15,15.15,0,0,0,8-.35c4.84-1.57,9.51-4.57,12-9.2a20.75,20.75,0,0,0,2-15.41Z" transform="translate(-6.31 -9)"/><path class="cls-2" d="M87.85,549.66c.16,0,5.16.38,2.46,0s1.83.54,2.37.69c1.38.4,2.72,1,4.1,1.39,3,.84-4.09-1.88.85.31,5.54,2.45,11,5,16.54,7.51q17.11,7.9,34,16.24c9.38,4.62,22.08,2.84,27.37-7.17,4.76-9,2.84-22.43-7.18-27.36q-18.65-9.18-37.54-17.86c-13.67-6.27-27.53-13.9-43-13.71-10.46.13-20.49,9.11-20,20,.48,10.73,8.79,20.14,20,20Z" transform="translate(-6.31 -9)"/><path class="cls-2" d="M197.08,560.87a109.11,109.11,0,0,0-10.18-28c-4.79-9.32-18.62-12.81-27.36-7.17-9.51,6.13-12.3,17.39-7.18,27.36.4.77,3.57,7.16,1.46,2.69a43,43,0,0,1,1.73,4.63,90.91,90.91,0,0,1,3,11.14c2.1,10.26,14.81,17.14,24.6,14,10.89-3.53,16.22-13.61,14-24.61Z" transform="translate(-6.31 -9)"/><path class="cls-2" d="M183.66,561.51a23.47,23.47,0,0,1,3-.82l-2.3.28c.88-.55,6.3.67,3.43-.11-4.12-1.13,4.7,1.38.83.23-3.25-1,4.89,3.38.13-.3,4.39,3.4,8.33,5.85,14.14,5.85,4.91,0,10.77-2.17,14.14-5.85,6.57-7.15,8.84-21.45,0-28.29-12.74-9.86-28-14.51-43.95-9.57-10,3.1-17.37,14.1-14,24.61,3.25,10,13.9,17.29,24.6,14Z" transform="translate(-6.31 -9)"/><path class="cls-2" d="M190.56,566.59c13.85,11.19,28,22.26,42.8,32.17,15.57,10.41,33,13.16,51.17,15.59,10.41,1.39,20.44-10.2,20-20-.54-12-8.84-18.51-20-20,4.54.61-.71-.11-1.69-.26-1.75-.26-3.49-.53-5.24-.84a104.44,104.44,0,0,1-10.31-2.33c-1.68-.48-3.33-1.06-5-1.62-3.46-1.16,1,.8-.86-.41-3.05-2-6.38-3.62-9.42-5.71-6-4.12-11.86-8.42-17.68-12.78-1.53-1.14-3-2.29-4.56-3.44-3.32-2.51,1.59,1.28-2-1.53-3-2.36-6-4.73-8.94-7.12-8.13-6.56-20.45-8.54-28.29,0-6.69,7.29-8.69,21.26,0,28.28Z" transform="translate(-6.31 -9)"/><path class="cls-2" d="M162.31,588.94c12.25,10.25,26,17.91,41.6,21.76,10.15,2.5,22.16-3.24,24.61-14,2.35-10.33-3.1-21.92-14-24.6-2.73-.68-5.43-1.44-8.09-2.38-.49-.17-4.77-2-2.31-.84s-2.23-1.13-2.21-1.12c-2.25-1.14-4.45-2.4-6.59-3.76-1.18-.75-2.33-1.56-3.5-2.35-3.51-2.35,2.28,1.94-1.26-1-8-6.71-20.53-8.45-28.28,0-6.8,7.4-8.58,21.11,0,28.28Z" transform="translate(-6.31 -9)"/><path class="cls-2" d="M192.75,568.74,164,560.8q-7.68-2.12-15.35-4.23c-1.79-.49-3.58-1-5.35-1.5-1.14-.34-2.26-.72-3.37-1.14q3,1.25.1-.26c-7.76-6.17-17.1-11.86-27.34-11.78a32.49,32.49,0,0,0-15.84,4c-6.61,3.8-9.95,9.21-12.77,16.08-4,9.7,4.31,22.4,14,24.6,11.64,2.65,20.32-3.58,24.6-14-1.64,4-3.91,7.81-8.23,9q-5,.43-1.73.31l-2.88-.44c3.58.9-3.56-2.53.47.16,1.38.92,2.76,1.81,4.11,2.78a66.92,66.92,0,0,0,21.7,10.22c15.34,4.29,30.7,8.47,46.05,12.7,10.08,2.78,22.21-3.44,24.61-14s-3.18-21.63-14-24.6Z" transform="translate(-6.31 -9)"/><path class="cls-2" d="M87.35,583.66l111.91,60.78c9.19,5,22.21,2.58,27.36-7.17,4.93-9.34,2.64-22-7.17-27.37L107.54,549.12c-9.2-5-22.22-2.58-27.37,7.17-4.93,9.34-2.64,22,7.18,27.37Z" transform="translate(-6.31 -9)"/><path class="cls-2" d="M105.05,612.6q3.17,1.27-.23-.14c1,.44,2,.9,3,1.37,2,.95,3.9,2,5.8,3,3.33,1.89,6.48,4,9.62,6.21q2.7,2-.16-.13c.85.69,1.69,1.39,2.51,2.11q1.86,1.6,3.64,3.3c3,2.86,5.69,6,8.39,9.07a54.7,54.7,0,0,0,24.1,16.38c3,1.07,6.14,2,9.22,2.9q3.09,1.14-1-.56c.79.37,1.56.77,2.31,1.21q2.67,1.77-1-.81a14.86,14.86,0,0,1,1.74,2c6.58,8.19,21.51,7.37,28.28,0,8-8.7,7-19.55,0-28.29-6.18-7.69-15.86-11-24.95-13.74-1-.29-4.72-.89-5.25-1.73q4,1.77,1.06.35a22.14,22.14,0,0,1-2.55-1.58c3.78,2.65-1.33-1.76-2-2.51-1.31-1.44-2.55-2.95-3.83-4.42-13-14.9-29.71-25.4-48-32.59-9.77-3.83-22.38,4.2-24.61,14-2.62,11.5,3.52,20.5,14,24.6Z" transform="translate(-6.31 -9)"/><path class="cls-2" d="M159.66,660.84A84.76,84.76,0,0,1,171,667.27c.46.31,5.32,3.76,3.27,2.27s2.68,2.16,3.12,2.53c6.37,5.26,12.43,10.89,18.87,16.07a160.19,160.19,0,0,0,51.4,28.18c9.95,3.24,22.28-3.77,24.6-14a20.45,20.45,0,0,0-14-24.6c-2.22-.73-4.43-1.48-6.61-2.31-1.09-.41-2.18-.84-3.26-1.28,1.82.77,2.08.86.76.28-3.91-2-7.87-3.78-11.67-6q-5.31-3.06-10.3-6.62c-1.21-.85-4.22-3.2-1.39-1q-2.58-2.05-5.1-4.19c-13-10.92-25.38-23.14-40.91-30.4-9.45-4.43-22-3-27.36,7.17-4.68,8.86-2.94,22.63,7.18,27.37Z" transform="translate(-6.31 -9)"/><path class="cls-2" d="M272.17,703.06c1.34-7.32,1.31-14.49,1.58-21.88.15-3.86-.51,1.63.08-.65.36-1.38.55-2.82.89-4.2a78.92,78.92,0,0,1,2.49-8.24c.39-1.09.83-2.16,1.23-3.25-1.51,4.11.54-1.13.77-1.61,1.11-2.39,2.31-4.74,3.54-7.06,2.89-5.43,6-10.71,9.21-16,5.39-9,2.29-22.36-7.18-27.36-9.68-5.12-21.61-2.41-27.36,7.17-6.94,11.55-13.39,23.2-18.18,35.83a81.51,81.51,0,0,0-4.39,16.61,96.78,96.78,0,0,0-1.29,13.15c0,1.57,0,3.13,0,4.7,0,1-.71,6.22,0,2.13-1.88,10.26,2.81,22.06,14,24.6,9.8,2.24,22.59-3,24.6-14Z" transform="translate(-6.31 -9)"/><path class="cls-2" d="M257,593.73c-3.54-.06-7.07-.27-10.6-.68,4.51.53-.71-.18-1.69-.37-2-.39-4-.84-6-1.35a100.88,100.88,0,0,1-10.14-3.18c-.83-.3-1.65-.62-2.47-.95,1.78.76,2,.85.71.26-1.84-1-3.73-1.78-5.56-2.74-9.27-4.85-22.16-2.68-27.37,7.17-4.86,9.21-2.72,22.19,7.18,27.37a125.31,125.31,0,0,0,56,14.47c10.47.21,20.48-9.34,20-20-.49-11-8.78-19.78-20-20Z" transform="translate(-6.31 -9)"/><path class="cls-2" d="M213.12,632.45c1.29.83,2.56,1.68,3.84,2.52,2.49,1.62.31-.4-.35-.37a26.4,26.4,0,0,1,3.28,3.11L218.6,636c.89,1.61,1,1.69.41.22-.46-1.32-.5-1.39-.11-.18q.57,2.18,0-1c0,.63-.6,5.12,0,2.67.6-2.61-.74,2.18-.88,2.66-.53,1.75-1.18,3.46-1.84,5.17-3.73,9.8,4.13,22.36,14,24.6,11.41,2.6,20.61-3.47,24.61-14,4.43-11.64,5.77-23.75.84-35.44-4.34-10.28-13.15-17-22.31-22.84-8.84-5.64-22.45-2.13-27.37,7.17a20.44,20.44,0,0,0,7.18,27.36Z" transform="translate(-6.31 -9)"/><path class="cls-2" d="M231,675.84c10.46,0,20.48-9.2,20-20s-8.79-20-20-20c-10.46,0-20.49,9.2-20,20s8.78,20,20,20Z" transform="translate(-6.31 -9)"/><path class="cls-2" d="M218.49,632.73l-7.56-3.29a14.92,14.92,0,0,0-7.44-2.37,15.11,15.11,0,0,0-8,.36c-4.64,1.28-9.67,4.86-12,9.19-2.45,4.64-3.68,10.26-2,15.41l2,4.78a20.14,20.14,0,0,0,7.18,7.17l7.56,3.29a14.89,14.89,0,0,0,7.44,2.37,15.12,15.12,0,0,0,8-.35c4.64-1.28,9.67-4.87,11.95-9.19,2.46-4.65,3.69-10.27,2-15.42l-2-4.77a20.06,20.06,0,0,0-7.17-7.18Z" transform="translate(-6.31 -9)"/><path class="cls-2" d="M523.66,91.28a102.2,102.2,0,0,0,21.13,7.89c4,.94,8.09,1.36,12.17,2-5.24-.79,1.58.45,1.54.46-2.44,1.25-7-7.81-6.83-7.14,2.68,10.11,14.4,17.27,24.61,14,10.39-3.36,16.83-13.76,14-24.6C587,71.39,576.27,63.9,564,62.08q-8.91-1.17-3.46-.47l-1.72-.3c-2.26-.53-4.54-.94-6.78-1.58-1.68-.47-3.31-1.09-5-1.59q-3.23-1.26-.07.08c-1.06-.47-2.11-1-3.15-1.48-9.41-4.54-22.05-2.89-27.37,7.18-4.73,9-2.88,22.5,7.18,27.36Z" transform="translate(-6.31 -9)"/><path class="cls-2" d="M561.38,70.13c-8.47,1.76-17.17,2.26-25.3,5.39-10.29,4-19.32,10.21-24.83,20-5.1,9.14-2.49,22.26,7.18,27.37,9.43,5,21.91,2.58,27.36-7.18q1.73-2.79-.77.5l1-1.05q2-1.8.1-.33t.27-.14c.2-.12,3.81-2,3.82-2.08q-3.49,1.43-1.4.67c.68-.24,1.37-.46,2.06-.66,6.9-2,14.17-2.51,21.19-4,10.26-2.13,17.15-14.79,14-24.61-3.51-10.85-13.61-16.24-24.6-14Z" transform="translate(-6.31 -9)"/><path class="cls-2" d="M529.05,130c10.46,0,20.49-9.19,20-20s-8.78-20-20-20c-10.46,0-20.48,9.2-20,20s8.79,20,20,20Z" transform="translate(-6.31 -9)"/><path class="cls-2" d="M505.6,120.58l-2.44,7.56c-1.55,4.81-.49,11.12,2,15.41s7.18,8.11,11.95,9.19c5.12,1.17,10.87.92,15.41-2a21.64,21.64,0,0,0,9.19-12l2.45-7.55c1.55-4.81.49-11.13-2-15.42-2.43-4.14-7.19-8.1-11.95-9.19-5.12-1.16-10.87-.91-15.41,2a21.64,21.64,0,0,0-9.2,12Z" transform="translate(-6.31 -9)"/><path class="cls-2" d="M503.41,127.52l-.84,1.67a14.92,14.92,0,0,0-2.37,7.44,18,18,0,0,0,3.94,14.77,15.14,15.14,0,0,0,5.61,5.16l4.78,2a20.18,20.18,0,0,0,10.63,0l4.78-2a20.06,20.06,0,0,0,7.17-7.18l.84-1.67a14.92,14.92,0,0,0,2.37-7.44,17.95,17.95,0,0,0-3.93-14.78,15.2,15.2,0,0,0-5.61-5.15l-4.78-2a20,20,0,0,0-10.64,0l-4.77,2a20.08,20.08,0,0,0-7.18,7.18Z" transform="translate(-6.31 -9)"/><path class="cls-2" d="M533.28,156.92l18.36-14.76c3.05-2.45,6-5,9.18-7.37q-2.45,1.83-.69.63c1.26-.75.9-.69-1.1.18-1.33.21-6.12-.72-2.75.36,9.4,3,18.17,2.11,27.72.83,4.15-.56-2.34-.17,1.39-.12,1.14,0,2.37.05,3.49,0,2-.16-4.53-.57.14.14q2.18.69-1.67-.74-3.27-2.9-.91-.63c7.44,7.37,20.95,8,28.28,0s7.95-20.42,0-28.29C607,99.46,596.16,96,585.39,96.67c-3.43.22-6.85.8-10.25,1.29-2.36.34-2.37.34,0,0-1.17.13-2.36.22-3.54.26h-1.77q3.48.69.23,0a64,64,0,0,0-6.25-1.53,32.44,32.44,0,0,0-21.69,2.93c-5.18,2.72-9.6,6.9-14.15,10.55l-23,18.44c-8.19,6.59-7.37,21.52,0,28.29,8.7,8,19.55,7,28.29,0Z" transform="translate(-6.31 -9)"/><path class="cls-2" d="M616.47,99.67a120.37,120.37,0,0,0-28-24.45c-8.81-5.68-22.47-2.09-27.37,7.17a20.45,20.45,0,0,0,7.18,27.37c2,1.31,4,2.71,6,4.1s-2.41-2.16.38.35c1,.9,2,1.75,3,2.65a104,104,0,0,1,10.5,11.1c6.67,8.11,21.46,7.43,28.28,0,7.92-8.63,7.12-19.63,0-28.29Z" transform="translate(-6.31 -9)"/><path class="cls-2" d="M574.83,112.68a450.75,450.75,0,0,0,52.44,42.64q2.91,2.06,5.79,4.16c3,2.15-.76-.82.88.69.87.8,1.82,1.52,2.7,2.31a97.17,97.17,0,0,1,9.88,10.41c2.41,2.87-.81-1.3.48.63.62.94,1.33,1.83,2,2.75,1.46,2.08,2.86,4.2,4.23,6.34,2.74,4.29,5.34,8.67,7.94,13,5.33,9,18.24,13.06,27.36,7.18s12.89-17.74,7.18-27.36a268.81,268.81,0,0,0-18.78-28.21c-7.19-9.23-15.64-16.51-25.09-23.38-4.12-3-8.34-5.87-12.47-8.87-2.24-1.63-4.44-3.3-6.66-5,2.82,2.1-.53-.42-1.06-.83l-2.88-2.3q-13.31-10.7-25.62-22.53c-7.57-7.24-20.87-8.08-28.29,0-7.19,7.84-8.07,20.56,0,28.28Z" transform="translate(-6.31 -9)"/><path class="cls-2" d="M614.18,157.26c.84,4.34,1.68,8.68,2.43,13,.33,1.86.61,3.74.93,5.6q.51,3.6.09.31c.16,1.25.31,2.5.45,3.76a121.59,121.59,0,0,1,.5,23.44c-.07.78-1.09,6.07-.12,1.55-.43,2-.72,4-1.19,5.93s-1,3.89-1.65,5.8c-.18.57-2.35,5.62-.47,1.64-3.45,7.32-8.12,13.95-11.6,21.24-4.49,9.43-2.92,22,7.17,27.37,8.92,4.71,22.56,2.91,27.37-7.18,3.72-7.82,8.79-14.88,12.28-22.82a102.71,102.71,0,0,0,8-31.81c2-19.55-2-39.39-5.66-58.51-2-10.29-14.89-17.11-24.61-14-11,3.56-16.09,13.58-14,24.61Z" transform="translate(-6.31 -9)"/><path class="cls-2" d="M642.05,257.76a326.29,326.29,0,0,0,43.82-38.7c7.15-7.65,8.15-20.81,0-28.29-7.76-7.12-20.65-8.16-28.28,0q-8.82,9.45-18.4,18.12-4.63,4.17-9.45,8.13c-1.6,1.33-3.23,2.62-4.85,3.92-1.81,1.42-1.87,1.46-.18.14-.94.72-1.89,1.43-2.85,2.14-8.36,6.23-13.48,17.59-7.17,27.36,5.33,8.28,18.39,13.86,27.36,7.18Z" transform="translate(-6.31 -9)"/><path class="cls-2" d="M667.76,199.49a131.42,131.42,0,0,0,12.77,33.1c5.53,10,12.62,19.13,17.94,29.29,1.23,2.34,2.35,4.71,3.45,7.1.77,1.67.74,1.87.05.06.52,1.37,1.07,2.72,1.59,4.09,2,5.22,3.63,10.53,5.14,15.89,3,10.78,5.34,21.74,7.64,32.69,2.15,10.25,14.76,17.15,24.6,14,10.84-3.51,16.27-13.62,14-24.6-4.77-22.75-10-45.25-20.31-66.25-4.91-10-11.57-19-17.28-28.52-1.37-2.28-2.67-4.6-3.87-7-.66-1.3-1.27-2.61-1.9-3.91-.81-1.7-.73-1.79,0,0a126.54,126.54,0,0,1-5.18-16.56c-2.4-10.19-14.6-17.21-24.6-14a20.42,20.42,0,0,0-14,24.6Z" transform="translate(-6.31 -9)"/><path class="cls-2" d="M737.49,290a196.66,196.66,0,0,1-16.55-16.87q-1.65-1.9-3.26-3.87c-.72-.87-1.42-1.74-2.12-2.63,1.39,1.83,1.4,1.85,0,0-2.16-3-4.3-5.92-6.33-9A192.21,192.21,0,0,1,697.81,238c-4.6-9.12-9-19.87-20.62-21.69-10.3-1.62-22,2.62-24.61,14-2.18,9.57,2.92,22.86,14,24.6q-11.24-11.55-7.46-5.47.46,1,.9,1.92c.71,1.53,1.42,3.07,2.16,4.59,1.6,3.28,3.3,6.53,5.09,9.72a191.06,191.06,0,0,0,11.32,17.8,218,218,0,0,0,30.65,34.83c7.74,7,20.73,8.23,28.28,0,7-7.66,8.27-20.77,0-28.28Z" transform="translate(-6.31 -9)"/><path class="cls-2" d="M638.84,236.47c-12.08,13.23-29.53,27.3-30.61,46.45-.82,14.33,9.32,26.81,23.78,27.7,9.3.57,18.14-3.45,26.27-7.4a28.36,28.36,0,0,1,4.85-2.32c-3.18.81-1.07.65.92-.15q2.85-.64.19-.22-5.67,1.07-10.48-3.88c-3.58-3.49-.57.11.26,1.64a144.5,144.5,0,0,0,11.68,18.25,180.82,180.82,0,0,0,35.95,36c8.36,6.36,22.74,1.59,27.36-7.17,5.58-10.56,1.76-20.57-7.17-27.36,1.44,1.09,1.62,1.3.1.05-1.07-.89-2.15-1.77-3.2-2.67-1.69-1.45-3.35-2.93-5-4.46a145.4,145.4,0,0,1-10.38-10.83c-.73-.84-1.45-1.69-2.15-2.55-.54-.65-3-3.8-.5-.52-1.34-1.78-2.65-3.57-3.92-5.41A143.92,143.92,0,0,1,689,278.84c-3.19-5.86-6.58-11.38-12.6-14.76-7-3.94-15.35-4-22.93-1.9-5.57,1.56-10.83,4.34-16,6.84-.41.19-2.39,1.46-2.77,1.31.39.15,3.58-1.16.58-.33-.71.2-4.51,1.83-1.68.7,1.44-.12,1.58-.15.44-.07q-4.62.15,6,1.7l7.17,7.17c-1.17-1.85-1.13-1.19.14,2a6,6,0,0,1,.44,5.22q.86-2.71.09-.6c-.59,1.41-.42,1.23.5-.52,2.29-2.95-1.19,1,.44-.7,1.24-1.27,2.37-2.67,3.57-4l14.75-16.16c7-7.73,8.21-20.75,0-28.28-7.68-7.06-20.75-8.26-28.28,0Z" transform="translate(-6.31 -9)"/><path class="cls-2" d="M621.07,297.53a259.85,259.85,0,0,0,15.18,68.91c3.66,9.76,13.67,17.5,24.6,14,9.55-3.09,17.91-14.12,14-24.6a240.61,240.61,0,0,1-9.24-30.38q-1.7-7.29-2.91-14.67c-.21-1.23-.39-2.46-.58-3.69-.91-5.88.16,2.24-.16-1.17-.27-2.79-.61-5.57-.86-8.37-.91-10.39-8.54-20.51-20-20-10.05.45-21,8.84-20,20Z" transform="translate(-6.31 -9)"/><path class="cls-2" d="M647,327.93c6.21,8.29,12.41,16.61,17.85,25.44a141.16,141.16,0,0,1,7,12.76c.62,1.28,1.22,2.57,1.78,3.88-.73-1.72-.73-1.87-.09,0,.93,2.7,1.85,5.38,2.62,8.14,2.82,10.07,14.29,17.31,24.6,14s17-13.81,14-24.6c-6.29-22.44-19.44-41.34-33.21-59.75-6.25-8.35-17.58-13.48-27.36-7.17-8.26,5.32-13.88,18.4-7.18,27.36Z" transform="translate(-6.31 -9)"/><path class="cls-2" d="M719.29,328.76c.19,1.27.38,2.55.56,3.84-.24-1.8-.26-2-.08-.51.26,2.25.55,4.49.8,6.74q.61,5.79,1.06,11.59,1,13.06,1,26.17.06,12.62-.74,25.21-.41,6.3-1,12.57-.28,2.89-.62,5.79c-.08.71-1.08,8.37-.51,4.31-.77,5.57-.95,10.34,2,15.41,2.43,4.14,7.19,8.1,12,9.19,9.41,2.14,23.06-2.89,24.6-14a408.65,408.65,0,0,0-.51-117c-1.54-10.38-15.19-17-24.6-14-11.34,3.67-15.62,13.48-14,24.61Z" transform="translate(-6.31 -9)"/><path class="cls-2" d="M703.39,364.56a661.87,661.87,0,0,1,1.36,87c-.53,10.46,9.57,20.46,20,20,11.28-.51,19.43-8.79,20-20a661.87,661.87,0,0,0-1.36-87c-.85-10.4-8.59-20.51-20-20-10.11.45-20.91,8.83-20,20Z" transform="translate(-6.31 -9)"/><path class="cls-2" d="M721.78,439.84c-.2,3.07-.44,6.15-.76,9.21,0,.39-.79,6.43-.18,2-.21,1.53-.43,3.07-.73,4.58-.17.86-1.37,5,.2,1.14a28.94,28.94,0,0,1-2,3.36c-1.08,1.86,2.29-2.24-.34.23-1.15,1.07-2.2,2.29-3.3,3.41-7.38,7.44-8,20.95,0,28.28s20.41,7.94,28.28,0c6.81-6.87,12.87-14.4,15.31-24,2.31-9.08,2.89-18.93,3.49-28.27.67-10.46-9.68-20.46-20-20-11.41.51-19.28,8.79-20,20Z" transform="translate(-6.31 -9)"/><path class="cls-2" d="M742.35,460.32a171.55,171.55,0,0,1-10.73-20.95c1.63,3.88-.59-1.63-.7-1.94q-1-2.54-1.86-5.11c-1.39-4-2.6-8-3.71-12.12-2.74-10.1-14.35-17.29-24.6-14s-16.91,13.78-14,24.6a200.81,200.81,0,0,0,21,49.68c5.35,9,18.24,13.05,27.37,7.17s12.89-17.74,7.17-27.36Z" transform="translate(-6.31 -9)"/><path class="cls-2" d="M681.7,382.84,680,385.35a14.93,14.93,0,0,0-2.38,7.44,15.26,15.26,0,0,0,.36,8,22.38,22.38,0,0,0,9.19,12l4.78,2a20,20,0,0,0,10.63,0l4.78-2a20.08,20.08,0,0,0,7.18-7.18l1.67-2.51a14.86,14.86,0,0,0,2.37-7.44,20.5,20.5,0,0,0-9.55-19.92l-4.77-2a20.22,20.22,0,0,0-10.64,0l-4.77,2a20.14,20.14,0,0,0-7.18,7.17Z" transform="translate(-6.31 -9)"/><path class="cls-2" d="M691.38,439.93l-.84-.83a20.55,20.55,0,0,0-28.28,0l-3.13,4a19.91,19.91,0,0,0-2.73,10.1l.72,5.32a20,20,0,0,0,5.14,8.82l.84.84a14.89,14.89,0,0,0,6.43,4.13,20.6,20.6,0,0,0,21.85-4.13l3.13-4.05a19.87,19.87,0,0,0,2.73-10.09l-.72-5.32a20,20,0,0,0-5.14-8.83Z" transform="translate(-6.31 -9)"/><path class="cls-2" d="M649.88,377.13c.13.21,2.11,4.45,1.2,2-1-2.63.39,1.72.52,2.25s.95,5.11.51,2.22.12,1.75.17,2.32c.47,6,.7,12.09,1.32,18.12a300,300,0,0,0,7,41.13c2.5,10.16,14.52,17.23,24.6,14,10.55-3.42,16.65-13.71,14-24.61-1.6-6.51-3-13.06-4.1-19.68-.26-1.57-.51-3.15-.75-4.73-.92-6,.17,2.16-.18-1.32s-.78-7-1.06-10.48c-1.14-14.26-1-28.68-8.65-41.35-5.42-8.94-18.19-13.09-27.37-7.17-9,5.79-13,17.79-7.17,27.36Z" transform="translate(-6.31 -9)"/><path class="cls-2" d="M689.46,440.47q-10-45.41-17.15-91.35c-1.62-10.37-15.14-17-24.6-14-11.28,3.65-15.7,13.49-14,24.61q7.15,45.93,17.15,91.34c2.25,10.23,14.7,17.18,24.6,14,10.75-3.48,16.38-13.64,14-24.6Z" transform="translate(-6.31 -9)"/><path class="cls-2" d="M635.78,343.55c-11.22,24-12.39,51.55-13.27,77.66a481.86,481.86,0,0,0,3.55,76.41c1.29,10.34,8.26,20.53,20,20,9.72-.43,21.39-8.88,20-20a483.13,483.13,0,0,1-3.67-72.54q.47-17.93,2.28-35.79c.11-1.16.24-2.32.37-3.49,0,0,.69-5.29.29-2.58s.35-2.05.44-2.56c.2-1.15.41-2.31.65-3.45.58-2.86,1.27-5.7,2.12-8.49.34-1.11.73-2.21,1.1-3.31,1.76-5.32-1.7,3.42.68-1.67,4.43-9.45,3-22-7.18-27.36-8.86-4.68-22.62-2.94-27.36,7.17Z" transform="translate(-6.31 -9)"/><path class="cls-2" d="M651.43,451.31a173.36,173.36,0,0,1-7.81,24.48c1.89-4.71-.82,1.75-1.21,2.59-.68,1.45-1.39,2.9-2.11,4.33q-2.91,5.75-6.25,11.25T627,504.68c-.36.51-3.65,4.84-.73,1.1q-2,2.54-4.06,5A164.17,164.17,0,0,1,604,529c-7.95,6.86-7.56,21.34,0,28.28,8.47,7.77,19.81,7.32,28.29,0A182.78,182.78,0,0,0,690,461.94c2.41-10.16-3.18-22.14-14-24.6-10.25-2.33-22,3.08-24.6,14Z" transform="translate(-6.31 -9)"/><path class="cls-2" d="M666.15,453.85c-1.58,10.48-5.84,20.21-9.7,30l-13.14,33.29c-4.1,10.39-8,20.86-12.42,31.13.81-1.91.43-1-.18.36s-1.25,2.84-1.89,4.25c-1,2.25-2.08,4.5-3.17,6.72q-3.87,7.93-8.46,15.47c-5.43,8.95-2.26,22.38,7.18,27.36,9.72,5.14,21.56,2.39,27.36-7.17,12.47-20.53,20.64-43.38,29.42-65.64l13.14-33.29c4.09-10.39,8.75-20.74,10.43-31.86,1.56-10.3-2.58-22-14-24.6-9.52-2.17-22.93,2.91-24.6,14Z" transform="translate(-6.31 -9)"/><path class="cls-2" d="M690.37,473q-4.32,17.1-9.9,33.84-2.88,8.59-6.1,17.06c-1,2.59-2,5.18-3,7.75-.62,1.55-1.48,3.46-.33.84-.58,1.33-1.17,2.65-1.78,4a103.62,103.62,0,0,1-7.53,13.65c-.8,1.2-1.61,2.39-2.49,3.53,1-1.37,1.35-1.66,0-.2-1.8,2-3.59,4-5.45,5.91-7.8,8.07-16,16.17-21.12,26.28-4.74,9.32-2.76,22.12,7.17,27.37,9.12,4.82,22.3,2.78,27.37-7.18,1.21-2.39,2.69-4.51,4.08-6.78-.84,1.37-1.65,2-.2.29.86-1,1.73-2,2.62-3,3.43-3.77,7.1-7.31,10.58-11a110.77,110.77,0,0,0,20.2-30.23,426.79,426.79,0,0,0,24.46-71.44c2.56-10.13-3.29-22.17-14-24.6-10.38-2.37-21.86,3.12-24.6,14Z" transform="translate(-6.31 -9)"/><path class="cls-2" d="M710.49,482.93c-.71,2.12-1.47,4.22-2.31,6.3,1.81-4.47-1.06,2.06-1.44,2.84-1.75,3.5-3.67,6.92-5.67,10.28-4.33,7.26-9.1,14.25-13.69,21.35-9.41,14.57-16.22,30.13-24.06,45.53-1.9,3.75-3.91,7.44-6.11,11-1.17,1.91-2.46,3.72-3.67,5.6s-1.31,1.82.11,0c-.51.65-1,1.29-1.58,1.92a87.2,87.2,0,0,1-8.31,8.56c-1.57,1.42-3.2,2.77-4.85,4.09,3.76-3-.89.57-1.7,1.13-13.49,9.37-28.63,16-43.64,22.49-9.63,4.17-12.54,19-7.17,27.36,6.44,10,17.05,11.64,27.36,7.18,15.73-6.82,31.64-13.76,45.59-23.87a122.86,122.86,0,0,0,37.74-43.78c8.21-15.83,15.12-32,24.83-47,10.45-16.17,21-31.9,27.14-50.33,3.31-9.93-3.83-22.29-14-24.6-11.05-2.52-21.05,3.33-24.6,14Z" transform="translate(-6.31 -9)"/><path class="cls-2" d="M642.43,603.05l25.89-43.58c5.35-9,2.33-22.34-7.17-27.36s-21.66-2.43-27.37,7.18L607.9,582.86c-5.35,9-2.33,22.34,7.17,27.36s21.66,2.44,27.36-7.17Z" transform="translate(-6.31 -9)"/><path class="cls-2" d="M619.13,552.79l-73.08,56c-4.32,3.31-7.68,6.47-9.19,11.95-1.32,4.79-.72,11.16,2,15.41,5.26,8.17,18.48,14,27.36,7.18l73.08-56c4.32-3.31,7.68-6.47,9.19-12,1.32-4.79.72-11.16-2-15.41-5.27-8.18-18.48-14-27.36-7.18Z" transform="translate(-6.31 -9)"/><path class="cls-2" d="M616.45,452.48c-3.87,11.54-8.11,22.92-12.61,34.23-1.41,3.53.6-1.33-.33.83l-1.73,4q-1.92,4.37-4,8.68-3.89,8.24-8.22,16.23a250.59,250.59,0,0,1-19,29.88c-.95,1.29-2.29,3-.54.77-1.11,1.4-2.22,2.79-3.35,4.17q-3,3.63-6.14,7.15c-4.6,5.18-9.35,10.21-14.1,15.23-7.19,7.61-8.11,20.84,0,28.29,7.8,7.16,20.61,8.12,28.28,0,18.93-20,36.13-41,49.34-65.3,12.72-23.36,22.43-48.35,30.88-73.52,3.33-9.92-3.84-22.29-14-24.6-11.06-2.52-21,3.34-24.6,14Z" transform="translate(-6.31 -9)"/><path class="cls-2" d="M562.55,536.29c-.59.92-1.22,1.82-1.87,2.7,1.48-1.87,1.5-1.94.08-.2-1.32,1.39-2.55,2.84-3.9,4.2a119.87,119.87,0,0,1-9.25,8.2c-4.26,3.48,3.25-2.33-1.2.91-1.78,1.3-3.55,2.61-5.34,3.89-3.27,2.36-6.57,4.69-9.91,7a188.55,188.55,0,0,1-20.75,12.44q-3.06,1.54-6.2,2.93c4-1.76-.67.2-1.57.52a94.43,94.43,0,0,1-13.18,3.69c-10.27,2.12-17.15,14.79-14,24.6,3.51,10.87,13.61,16.24,24.6,14,19.15-4,36.7-13.63,52.69-24.59,16.59-11.36,33-23.12,44.31-40,5.85-8.7,2-22.53-7.17-27.36-10.09-5.33-21.12-2.12-27.37,7.17Z" transform="translate(-6.31 -9)"/><path class="cls-2" d="M488.56,620.79c10.49,3,21,6.3,31.9,7.53,6.08.68,11.86-.09,17.88-1.11,2.39-.41,4.75-1,7.15-1.31-5.72.67,5.74,1.09,0,0,10.25,1.91,22.07-2.82,24.6-14,2.24-9.81-3-22.56-14-24.6a57.89,57.89,0,0,0-21.24,0c-2.39.39-4.77.87-7.15,1.3s-2.39.4-.07,0a30.89,30.89,0,0,1-3.6,0c-2.37-.2-2.39-.18,0,.05-1.18-.22-2.36-.48-3.53-.76-2.37-.56-4.72-1.21-7.07-1.83q-7.12-1.9-14.21-3.92c-10.05-2.86-22.21,3.49-24.6,14-2.42,10.64,3.2,21.54,14,24.6Z" transform="translate(-6.31 -9)"/><path class="cls-2" d="M600.39,589a48.1,48.1,0,0,1-5,5.5c-.93.86-3.42,4.1-.52.62a13.51,13.51,0,0,1-3.06,2.1,116.07,116.07,0,0,1-14,7.45c-12.24,5.69-23.88,10.17-31.95,21.67-6,8.59-1.83,22.6,7.18,27.37,10.24,5.41,20.93,2,27.36-7.18-1.5,1.79-1.73,2.17-.69,1.16.81-.74.74-.69-.23.14-2.48,1.43,1.41-.61,1.91-.87,2.23-1.2,4.55-2.25,6.85-3.31,4.63-2.14,9.32-4.15,13.9-6.4,9.89-4.87,19.68-11.22,26.55-20,3.41-4.36,5.85-8.37,5.85-14.14,0-4.91-2.18-10.77-5.85-14.14-7.2-6.61-21.39-8.8-28.29,0Z" transform="translate(-6.31 -9)"/><path class="cls-2" d="M586.5,621.1q-11.79,15-25,28.73c-7.24,7.56-8.08,20.87,0,28.28,7.84,7.2,20.56,8.08,28.29,0q13.17-13.75,24.95-28.72c3.42-4.34,5.86-8.38,5.86-14.14,0-4.91-2.18-10.77-5.86-14.15-7.2-6.61-21.37-8.77-28.28,0Z" transform="translate(-6.31 -9)"/><path class="cls-2" d="M602.4,632.35c-8.79,2.47-16.8,6.79-24.37,11.8-3.1,2-6.15,4.16-9.3,6.12-1.35.83-2.71,1.65-4.09,2.41-.87.48-6.72,4-2.35,1.36-3.24,2-8.09,2.64-11.64,4a58.77,58.77,0,0,0-13.75,7.45c-8.29,6.11-16.29,12.66-24.4,19-8.29,6.48-7.3,21.59,0,28.29,8.79,8.07,19.44,6.9,28.28,0l10.25-8,4.4-3.43,2.93-2.29c-1.74,1.34-1.7,1.32.14-.06,1.45-1,3-1.86,4.41-2.84,3.52-2.4-2.12.36,1.66-.77a120.62,120.62,0,0,0,14.6-5.41c6.31-2.8,12-6.61,17.72-10.43,3.07-2.05,6.16-4.09,9.39-5.87.66-.37,3.41-2.21,4.18-2.14-2.39,1-2.54,1.06-.43.27,1-.34,2-.65,3-.91,10.07-2.82,17.31-14.29,14-24.6s-13.81-17-24.6-14Z" transform="translate(-6.31 -9)"/><path class="cls-2" d="M546.61,696.88c.33-15.08.71-30.17,1-45.26.15-8.63-.86-16.7-4.5-24.6-3.18-6.91-8.76-12.62-14.27-17.75-7.67-7.12-20.79-8.16-28.28,0-7.11,7.75-8.19,20.68,0,28.29,2,1.85,3.87,3.81,5.8,5.72,2.53,2.49-.49-1.45.33.42s1.11,2.72.43.24c.19.67.75,5,.61,2.14-.15-3-.08,2.2-.08,2.25,0,3.06-.11,6.13-.17,9.2l-.86,39.35c-.23,10.47,9.36,20.48,20,20,11-.49,19.75-8.78,20-20Z" transform="translate(-6.31 -9)"/><path class="cls-2" d="M501.05,638.76a258.48,258.48,0,0,1,39.57,39c6.65,8.14,21.47,7.42,28.28,0,7.93-8.64,7.09-19.61,0-28.28a258.48,258.48,0,0,0-39.56-39c-8.18-6.48-20.41-8.58-28.29,0-6.63,7.23-8.75,21.35,0,28.29Z" transform="translate(-6.31 -9)"/></svg>